<?xml version="1.0" encoding="UTF-8" standalone="no"?>
<svg
   width="128"
   height="128"
   viewBox="0 0 128 128"
   fill="none"
   version="1.1"
   id="svg13"
   sodipodi:docname="repair_icon.svg"
   inkscape:version="1.3.2 (091e20e, 2023-11-25, custom)"
   xmlns:inkscape="http://www.inkscape.org/namespaces/inkscape"
   xmlns:sodipodi="http://sodipodi.sourceforge.net/DTD/sodipodi-0.dtd"
   xmlns="http://www.w3.org/2000/svg"
   xmlns:svg="http://www.w3.org/2000/svg">
  <sodipodi:namedview
     id="namedview13"
     pagecolor="#505050"
     bordercolor="#ffffff"
     borderopacity="1"
     inkscape:showpageshadow="0"
     inkscape:pageopacity="0"
     inkscape:pagecheckerboard="1"
     inkscape:deskcolor="#505050"
     inkscape:zoom="5.4868639"
     inkscape:cx="78.277866"
     inkscape:cy="72.081248"
     inkscape:window-width="1920"
     inkscape:window-height="1009"
     inkscape:window-x="-8"
     inkscape:window-y="-8"
     inkscape:window-maximized="1"
     inkscape:current-layer="svg13" />
  <defs
     id="defs6">
    <linearGradient
       id="panel"
       x1="16"
       y1="16"
       x2="112"
       y2="112"
       gradientUnits="userSpaceOnUse">
      <stop
         offset="0"
         stop-color="#17212B"
         id="stop1" />
      <stop
         offset="1"
         stop-color="#090D14"
         id="stop2" />
    </linearGradient>
    <linearGradient
       id="accent"
       x1="22"
       y1="22"
       x2="106"
       y2="106"
       gradientUnits="userSpaceOnUse">
      <stop
         offset="0"
         stop-color="#FFCC6A"
         id="stop3" />
      <stop
         offset="1"
         stop-color="#FF6B3D"
         id="stop4" />
    </linearGradient>
    <linearGradient
       id="cross"
       x1="40"
       y1="34"
       x2="88"
       y2="82"
       gradientUnits="userSpaceOnUse">
      <stop
         offset="0"
         stop-color="#B7FFF3"
         id="stop5" />
      <stop
         offset="1"
         stop-color="#55D0A0"
         id="stop6" />
    </linearGradient>
  </defs>
  <path
     d="M 40.363635,12 H 87.636363 L 116,36 V 92 L 87.636363,116 H 40.363635 L 12.000001,92 V 36 Z"
     fill="url(#panel)"
     stroke="url(#accent)"
     stroke-width="4"
     id="path6"
     style="fill:url(#panel);stroke:url(#accent)" />
  <path
     d="M34 25H48"
     stroke="#FF8B52"
     stroke-width="4"
     stroke-linecap="round"
     id="path7" />
  <path
     d="M80 103H96"
     stroke="#FF8B52"
     stroke-width="4"
     stroke-linecap="round"
     id="path8" />
  <path
     d="M30 64H18"
     stroke="#FF8B52"
     stroke-width="4"
     stroke-linecap="round"
     id="path9" />
  <path
     d="M110 64H98"
     stroke="#FF8B52"
     stroke-width="4"
     stroke-linecap="round"
     id="path10" />
  <path
     d="M 58,40 H 70 V 58 H 88 V 70 H 70 V 88 H 58 V 70 H 40 V 58 h 18 z"
     fill="url(#cross)"
     id="path11"
     style="fill:url(#cross)" />
  <path
     d="m 87,33 -6,6 4,4 6,-6 6,6 4,-4 -6,-6 6.5,-6.5 -4,-4 -6.5,6.5 -6,-6 -4,4 6,6"
     fill="#ffd36e"
     id="path12"
     sodipodi:nodetypes="ccccccccccccc" />
  <path
     d="M80.5 26.5L87 33L81 39L85 43L91 37L97 43L101 39L95 33L101.5 26.5L97.5 22.5L91 29L85 23L81 27L87 33L80.5 39.5"
     stroke="#7A3A16"
     stroke-width="1.5"
     stroke-linejoin="round"
     id="path13" />
</svg>
