<?xml version="1.0" encoding="UTF-8" standalone="no"?>
<svg
   width="620"
   height="320"
   viewBox="0 0 620 320"
   fill="none"
   version="1.1"
   id="svg30"
   sodipodi:docname="ship_hud_center_frame.svg"
   inkscape:version="1.3.2 (091e20e, 2023-11-25, custom)"
   xmlns:inkscape="http://www.inkscape.org/namespaces/inkscape"
   xmlns:sodipodi="http://sodipodi.sourceforge.net/DTD/sodipodi-0.dtd"
   xmlns:xlink="http://www.w3.org/1999/xlink"
   xmlns="http://www.w3.org/2000/svg"
   xmlns:svg="http://www.w3.org/2000/svg">
  <sodipodi:namedview
     id="namedview30"
     pagecolor="#505050"
     bordercolor="#ffffff"
     borderopacity="1"
     inkscape:showpageshadow="0"
     inkscape:pageopacity="0"
     inkscape:pagecheckerboard="1"
     inkscape:deskcolor="#505050"
     inkscape:zoom="1.8521636"
     inkscape:cx="296.41011"
     inkscape:cy="122.82932"
     inkscape:window-width="1920"
     inkscape:window-height="1009"
     inkscape:window-x="-8"
     inkscape:window-y="-8"
     inkscape:window-maximized="1"
     inkscape:current-layer="svg30" />
  <defs
     id="defs10">
    <linearGradient
       id="towerFill"
       x1="0"
       y1="0"
       x2="0"
       y2="1">
      <stop
         offset="0"
         stop-color="#1B2431"
         stop-opacity="0.96"
         id="stop1" />
      <stop
         offset="1"
         stop-color="#090C13"
         stop-opacity="0.98"
         id="stop2" />
    </linearGradient>
    <linearGradient
       id="railFill"
       x1="0"
       y1="0"
       x2="1"
       y2="0">
      <stop
         offset="0"
         stop-color="#151820"
         stop-opacity="0.96"
         id="stop3" />
      <stop
         offset="0.5"
         stop-color="#090C13"
         stop-opacity="0.98"
         id="stop4" />
      <stop
         offset="1"
         stop-color="#151820"
         stop-opacity="0.96"
         id="stop5" />
    </linearGradient>
    <linearGradient
       id="leftAccent"
       x1="0"
       y1="0"
       x2="1"
       y2="0">
      <stop
         offset="0"
         stop-color="#FFB13B"
         stop-opacity="0.95"
         id="stop6" />
      <stop
         offset="1"
         stop-color="#FF7C3B"
         stop-opacity="0.4"
         id="stop7" />
    </linearGradient>
    <linearGradient
       id="rightAccent"
       x1="0"
       y1="0"
       x2="1"
       y2="0">
      <stop
         offset="0"
         stop-color="#2AE2FF"
         stop-opacity="0.4"
         id="stop8" />
      <stop
         offset="1"
         stop-color="#68B7FF"
         stop-opacity="0.95"
         id="stop9" />
    </linearGradient>
    <filter
       id="softGlow"
       x="-0.77777778"
       y="-inf"
       width="2.5555556"
       height="inf">
      <feGaussianBlur
         stdDeviation="5"
         result="blur"
         id="feGaussianBlur9" />
      <feMerge
         id="feMerge10">
        <feMergeNode
           in="blur"
           id="feMergeNode9" />
        <feMergeNode
           in="SourceGraphic"
           id="feMergeNode10" />
      </feMerge>
    </filter>
    <linearGradient
       inkscape:collect="always"
       xlink:href="#towerFill"
       id="linearGradient30"
       x1="545.55332"
       y1="12.942823"
       x2="545.55332"
       y2="147.99837"
       gradientTransform="matrix(0.56273143,0,0,1.7770466,8,0)"
       gradientUnits="userSpaceOnUse" />
    <linearGradient
       inkscape:collect="always"
       xlink:href="#towerFill"
       id="linearGradient31"
       x1="421.16005"
       y1="12.942823"
       x2="421.16005"
       y2="147.99837"
       gradientTransform="matrix(0.56273143,0,0,1.7770466,-8,0)"
       gradientUnits="userSpaceOnUse" />
  </defs>
  <path
     d="M188 282L208 246H412L432 282H524L570 266L604 286L566 304H52L16 286L50 266L96 282H188Z"
     fill="url(#railFill)"
     stroke="#455264"
     stroke-width="2"
     id="path10" />
  <path
     d="M228 250L242 226H378L392 250H520"
     stroke="#273343"
     stroke-width="2"
     id="path11" />
  <path
     d="M228 252H278"
     stroke="url(#leftAccent)"
     stroke-width="3"
     stroke-linecap="round"
     id="path12" />
  <path
     d="M342 252H392"
     stroke="url(#rightAccent)"
     stroke-width="3"
     stroke-linecap="round"
     id="path13" />
  <path
     d="M154 282H216"
     stroke="#1F2732"
     stroke-width="6"
     stroke-linecap="round"
     id="path14" />
  <path
     d="M404 282H466"
     stroke="#1F2732"
     stroke-width="6"
     stroke-linecap="round"
     id="path15" />
  <path
     d="M208 244L222 232H398L412 244"
     stroke="#617084"
     stroke-width="2"
     id="path16" />
  <path
     d="m 230,36 14,-12 h 48 l 12,12 v 212 l -16,14 h -42 l -16,-14 z"
     fill="url(#towerFill)"
     stroke="#5b6878"
     stroke-width="2"
     id="path17"
     style="fill:url(#linearGradient31)" />
  <path
     d="m 316,36 12,-12 h 48 l 14,12 v 212 l -16,14 h -42 l -16,-14 z"
     fill="url(#towerFill)"
     stroke="#5b6878"
     stroke-width="2"
     id="path18"
     style="fill:url(#linearGradient30)" />
  <path
     d="m 238,42 9,-9 h 42 l 7,9 v 28 h -58 z"
     fill="#10151c"
     stroke="#6b7888"
     stroke-width="1.5"
     id="path19" />
  <path
     d="m 324,42 7,-9 h 42 l 9,9 v 28 h -58 z"
     fill="#10151c"
     stroke="#6b7888"
     stroke-width="1.5"
     id="path20" />
  <path
     d="m 229.90135,76 14.0719,-10 h 48.61201 l 11.51337,10 v 20 h -74.19728 z"
     fill="#0a0e15"
     stroke="#763b34"
     stroke-width="1.5"
     id="path21" />
  <path
     d="m 315.90135,76 11.51337,-10 h 48.61201 l 14.07189,10 v 20 h -74.19727 z"
     fill="#0a0e15"
     stroke="#28486f"
     stroke-width="1.5"
     id="path22" />
  <path
     d="m 240,102 h 54 v 138 h -54 z"
     fill="#090c13"
     stroke="#2a313e"
     stroke-width="1.5"
     id="path23" />
  <path
     d="m 326,102 h 54 v 138 h -54 z"
     fill="#090c13"
     stroke="#2a313e"
     stroke-width="1.5"
     id="path24" />
  <path
     d="m 226,248 12,-8 h 58 l 12,8 v 18 h -82 z"
     fill="#11161e"
     stroke="#566170"
     stroke-width="1.5"
     id="path25" />
  <path
     d="m 312,248 12,-8 h 58 l 12,8 v 18 h -82 z"
     fill="#11161e"
     stroke="#566170"
     stroke-width="1.5"
     id="path26" />
  <path
     d="M246 270H264"
     stroke="url(#leftAccent)"
     stroke-width="4"
     stroke-linecap="round"
     filter="url(#softGlow)"
     id="path27" />
  <path
     d="M356 270H374"
     stroke="url(#rightAccent)"
     stroke-width="4"
     stroke-linecap="round"
     filter="url(#softGlow)"
     id="path28" />
  <path
     d="M112 296H188"
     stroke="#0F141B"
     stroke-width="7"
     stroke-linecap="round"
     id="path29" />
  <path
     d="M432 296H508"
     stroke="#0F141B"
     stroke-width="7"
     stroke-linecap="round"
     id="path30" />
</svg>
